<svg xmlns="http://www.w3.org/2000/svg" version="1.1" xmlns:xlink="http://www.w3.org/1999/xlink" xmlns:svgjs="http://svgjs.dev/svgjs" width="128" height="128" viewBox="0 0 128 128"><g transform="matrix(0.8046875,0,0,0.8046875,12.333870967741937,12.333870967741937)"><svg viewBox="0 0 155 155" data-background-color="#1d366f" preserveAspectRatio="xMidYMid meet" height="128" width="128" xmlns="http://www.w3.org/2000/svg" xmlns:xlink="http://www.w3.org/1999/xlink"><g id="tight-bounds" transform="matrix(1,0,0,1,0.25,0.25)"><svg viewBox="0 0 154.5 154.5" height="154.5" width="154.5"><g><svg></svg></g><g><svg viewBox="0 0 154.5 154.5" height="154.5" width="154.5"><g transform="matrix(1,0,0,1,50.86709210526316,43.83165)"><svg viewBox="0 0 52.76581578947368 66.8367" height="66.8367" width="52.76581578947368"><g><svg viewBox="0 0 52.76581578947368 66.8367" height="66.8367" width="52.76581578947368"><g><svg viewBox="0 0 52.76581578947368 66.8367" height="66.8367" width="52.76581578947368"><g id="textblocktransform"><svg viewBox="0 0 52.76581578947368 66.8367" height="66.8367" width="52.76581578947368" id="textblock"><g><svg viewBox="0 0 52.76581578947368 66.8367" height="66.8367" width="52.76581578947368"><g transform="matrix(1,0,0,1,0,0)"><svg width="52.76581578947368" viewBox="2.2 -36.05 29.25 37.05" height="66.8367" data-palette-color="#ffffff"><path d="M29.55-5.15L30.7-3.5 25.7-0.1 16.2 1 6.75-3.5 3.2-9.95 2.2-16.4 2.2-21.5 4.9-28.05 11.35-34.15 18.2-36.05 23.8-36.05 31.45-34.1 30.55-31.55 29.85-25.5 27.95-25.35 26.8-32.35 23.1-33.3 17.1-33.3 9.6-26.9 7.95-18.7 8.65-11.1 11.55-5.75 16.75-1.65 24.9-2.35 29.55-5.15Z" opacity="1" transform="matrix(1,0,0,1,0,0)" fill="#ffffff" class="wordmark-text-0" data-fill-palette-color="primary" id="text-0"></path></svg></g></svg></g></svg></g></svg></g><g></g></svg></g></svg></g><g><path d="M0 154.5v-154.5h154.5v154.5zM148.473 148.473v-142.446h-142.446v142.446z" fill="#ffffff" fill-rule="nonzero" stroke="none" stroke-width="1" stroke-linecap="butt" stroke-linejoin="miter" stroke-miterlimit="10" stroke-dasharray="" stroke-dashoffset="0" font-family="none" font-weight="none" font-size="none" text-anchor="none" style="mix-blend-mode: normal" data-fill-palette-color="tertiary"></path></g></svg></g><defs></defs></svg><rect width="154.5" height="154.5" fill="none" stroke="none" visibility="hidden"></rect></g></svg></g></svg>