<svg xmlns="http://www.w3.org/2000/svg" version="1.1" xmlns:xlink="http://www.w3.org/1999/xlink" xmlns:svgjs="http://svgjs.dev/svgjs" width="2000" height="1500" viewBox="0 0 2000 1500"><rect width="2000" height="1500" fill="#1d366f"></rect><g transform="matrix(0.75,0,0,0.75,248.16489361702133,410.37996899999996)"><svg viewBox="0 0 376 170" data-background-color="#1d366f" preserveAspectRatio="xMidYMid meet" height="904" width="2000" xmlns="http://www.w3.org/2000/svg" xmlns:xlink="http://www.w3.org/1999/xlink"><g id="tight-bounds" transform="matrix(1,0,0,1,0.46023999999999887,0.15546500000000663)"><svg viewBox="0 0 375.07953 169.68863999999994" height="169.68863999999994" width="375.07953"><g><svg></svg></g><g><svg viewBox="0 0 375.07953 169.68863999999994" height="169.68863999999994" width="375.07953"><g transform="matrix(1,0,0,1,-10.22024,-43.39393000000001)"><path d="M10.22 203.806v-160.412h375.08v160.412h-116.165l0-5.38h110.785v-149.652h-364.32v149.652l110.785 0 0 5.38z" fill="#ffffff" fill-rule="nonzero" stroke="none" stroke-width="1" stroke-linecap="butt" stroke-linejoin="miter" stroke-miterlimit="10" stroke-dasharray="" stroke-dashoffset="0" font-family="none" font-weight="none" font-size="none" text-anchor="none" style="mix-blend-mode: normal" data-fill-palette-color="tertiary"></path><g><path d="M162.458 208.599v0c0 1.441 0.72 2.161 2.161 2.161v0c1.935 0 4.268-1.398 6.999-4.193v0c2.473-2.494 4.361-5.036 5.664-7.625 1.299-2.593 1.948-4.567 1.948-5.922v0c0-0.215-0.021-0.43-0.065-0.645v0c-0.473 0-0.957-0.247-1.451-0.742v0 0.033c-0.323-0.258-0.484-0.523-0.484-0.794 0-0.267 0.108-0.486 0.323-0.658 0.215-0.172 0.495-0.258 0.838-0.258 0.344 0 0.587 0.133 0.729 0.4 0.138 0.271 0.314 0.514 0.529 0.729 0.215 0.215 0.312 0.366 0.29 0.452v0c0.129 0.194 0.329 0.29 0.6 0.29 0.267 0 0.572-0.129 0.916-0.387 0.344-0.258 0.619-0.387 0.826-0.387 0.202 0 0.303 0.065 0.303 0.193v0c0 0.237-0.204 0.462-0.613 0.678v0c-0.215 0.172-0.473 0.269-0.774 0.29v0h-1.032c0.258 0.882 0.387 1.516 0.387 1.903v0c0 1.72-0.821 3.957-2.464 6.709-1.647 2.752-3.761 5.193-6.341 7.322v0c-2.602 2.193-4.961 3.29-7.077 3.29-2.12 0-3.18-1.032-3.18-3.097v0c0-1.634 0.688-3.967 2.064-6.999v0l2.322-5.064-3.16 2.451c-0.989 0.817-1.993 1.714-3.013 2.69-1.024 0.981-2.804 2.998-5.341 6.051v0l-3.742 4.58c-0.602 0.688-1.14 1.032-1.613 1.033v0c-0.366 0-0.548-0.237-0.548-0.71 0-0.473 0.194-1.086 0.581-1.839v0l6.225-8.966c3.763-5.526 5.645-9.031 5.644-10.515v0c0-0.817-0.753-1.226-2.258-1.226v0c-1.828 0-4.376 1.118-7.644 3.355v0c-1.763 1.204-3.311 2.714-4.644 4.528-1.333 1.819-2 3.324-2 4.516 0 1.196 0.796 1.793 2.387 1.793v0c1.484 0 3.01-0.688 4.58-2.064v0c0.559-0.473 0.882-0.71 0.967-0.71 0.086 0 0.118 0.075 0.097 0.226v0c-0.237 0.817-1.112 1.596-2.625 2.335-1.518 0.744-2.858 1.116-4.019 1.116v0c-0.301 0-0.505-0.011-0.613-0.032v0h-0.032c-1.72-0.366-2.58-1.215-2.581-2.548 0-1.333 0.742-2.935 2.226-4.806v0c2.623-3.311 5.999-5.774 10.128-7.386v0c2.129-0.817 3.881-1.226 5.257-1.226v0c1.699 0 2.548 0.559 2.548 1.677v0c0 2.322-2.924 7.365-8.773 15.128v0c-1.957 2.602-2.946 3.903-2.967 3.902v0c0.065 0 1.189-1.215 3.373-3.644 2.18-2.43 4.249-4.505 6.206-6.226v0c0.753-0.667 2.054-1.892 3.903-3.677v0c0.968-0.903 2.011-1.72 3.129-2.451v0c0.28-0.172 0.684-0.258 1.212-0.258 0.525 0 0.884 0.151 1.078 0.452v0c-1.978 2.451-3.703 5.197-5.174 8.237-1.475 3.045-2.213 5.223-2.213 6.535zM181.23 192.214h-0.033zM180.294 209.889v0c-0.237 0-0.452-0.032-0.645-0.096v0c-1.376-0.387-2.064-1.161-2.064-2.323v0c0-1.505 0.946-3.247 2.838-5.225 1.892-1.978 3.591-2.967 5.096-2.967v0c0.495 0 0.899 0.133 1.213 0.4 0.31 0.271 0.464 0.6 0.465 0.987v0c0 1.204-0.907 2.355-2.723 3.451-1.819 1.097-3.299 1.645-4.438 1.645v0c-0.172 0-0.323-0.021-0.451-0.065v0c-0.323 0.581-0.484 1.193-0.484 1.839v0c0 1.118 0.531 1.677 1.593 1.677 1.067 0 2.449-0.72 4.148-2.161v0c1.312-1.054 2.43-2.172 3.355-3.354v0c0.194-0.258 0.361-0.387 0.503-0.388 0.138 0 0.206 0.065 0.206 0.194 0 0.129-0.086 0.312-0.258 0.548v0c-1.161 1.527-2.559 2.881-4.193 4.064-1.634 1.183-3.021 1.774-4.161 1.774zM186.39 200.6v0c0-0.258-0.275-0.387-0.825-0.387-0.546 0-1.325 0.419-2.336 1.258v0c-1.355 1.118-2.408 2.29-3.161 3.516v0c0.129 0.043 0.269 0.065 0.42 0.064v0c0.817 0 1.907-0.437 3.27-1.309 1.368-0.869 2.223-1.819 2.568-2.852v0c0.043-0.108 0.065-0.204 0.064-0.29zM210.775 200.503v0c-1.29 0-2.376-0.297-3.258-0.89-0.882-0.589-1.322-1.335-1.322-2.238v0c0-1.14 0.742-2.279 2.225-3.419v0c0.258-0.194 0.452-0.29 0.581-0.291 0.129 0 0.194 0.043 0.193 0.129v0c0 0.215-0.172 0.387-0.516 0.517v0c-1.204 0.968-1.806 1.946-1.806 2.935v0c0 0.71 0.323 1.305 0.968 1.787 0.645 0.486 1.451 0.729 2.419 0.729v0c2.107 0 4.096-1.011 5.967-3.032v0c0.968-1.054 1.451-2.269 1.451-3.645 0-1.376-0.516-2.398-1.548-3.064v0c-0.86-0.602-2.021-0.903-3.484-0.903v0c-2.107 0-4.225 0.527-6.354 1.58v0c-2.623 1.269-4.993 3.24-7.109 5.915-2.12 2.679-3.18 5.255-3.18 7.729v0c0 1.957 0.667 3.466 2 4.528 1.333 1.067 2.989 1.6 4.967 1.6v0c2.258 0 4.473-0.548 6.645-1.645v0c1.656-0.86 3.086-1.957 4.289-3.29v0c0.344-0.387 0.613-0.581 0.807-0.581v0c0.129 0 0.194 0.112 0.193 0.336 0 0.228-0.118 0.46-0.355 0.697v0c-1.14 1.204-2.785 2.365-4.934 3.483v0c-2.645 1.398-5.305 2.097-7.98 2.097-2.679 0-4.675-0.882-5.987-2.645v0c-0.882-1.161-1.322-2.548-1.322-4.161v0c0-0.71 0.086-1.473 0.258-2.29v0c0.581-2.752 2.107-5.429 4.58-8.031v0c1.785-1.871 3.903-3.329 6.354-4.374 2.451-1.041 4.774-1.561 6.967-1.561v0c1.161 0 2.172 0.14 3.032 0.419v0c2.344 0.731 3.516 2.204 3.516 4.419v0c0 1.355-0.398 2.527-1.194 3.516v0c-1.978 2.43-4.333 3.645-7.063 3.644zM227.45 199.826v0l0.452-0.097c0.237 0 0.462 0.097 0.677 0.291 0.215 0.194 0.323 0.344 0.323 0.451 0 0.108-0.667 1.144-2 3.109-1.333 1.97-2 3.342-2 4.116v0c0 0.065 0.011 0.129 0.032 0.194v0c0.108 0.495 0.344 0.742 0.71 0.741v0c1.118 0 3.161-1.849 6.128-5.547v0c0.065-0.086 0.14-0.129 0.226-0.129 0.086 0 0.129 0.08 0.129 0.238 0 0.163-0.097 0.374-0.29 0.633v0c-2.752 3.677-4.849 5.516-6.29 5.515v0c-0.194 0-0.376-0.032-0.548-0.097v0c-0.946-0.366-1.419-1.075-1.419-2.128v0c0-0.366 0.043-0.731 0.129-1.097v0l-2 1.935c-1.269 1.118-2.187 1.677-2.755 1.677-0.572 0-1.116-0.183-1.632-0.548v0c-0.581-0.43-0.871-1-0.871-1.709v0c0-1.57 1.097-3.447 3.29-5.632 2.193-2.18 4.204-3.271 6.032-3.271v0c0.71 0 1.183 0.247 1.419 0.742v0c0.065 0.172 0.118 0.316 0.161 0.432 0.043 0.12 0.075 0.181 0.097 0.181zM217.806 207.761v0c0 0.774 0.269 1.161 0.806 1.161v0c1.247 0 2.946-1.365 5.097-4.097v0l3.419-4.709c-0.172-0.301-0.452-0.452-0.839-0.451v0c-1.312 0-3.053 1.015-5.225 3.045-2.172 2.034-3.258 3.718-3.258 5.051zM236.61 209.631v0c-1.613 0-2.419-0.892-2.419-2.677v0c0-0.903 0.237-1.892 0.71-2.967 0.473-1.075 0.989-1.978 1.548-2.71v0c-0.108 0.021-0.247 0.032-0.419 0.033v0c-0.516 0-0.946-0.366-1.29-1.097v0l-2.387 3.096c-1.333 1.656-2.107 2.484-2.322 2.484v0c-0.108 0-0.161-0.043-0.162-0.129v0c0-0.215 0.183-0.527 0.549-0.935v0c1.871-2.172 3.193-4.01 3.967-5.516v0c0.495-1.871 1.118-2.806 1.871-2.806v0c0.495 0 0.742 0.215 0.742 0.645 0 0.43-0.269 0.978-0.807 1.645v0l-0.774 1.032c0 0.452 0.333 0.677 1 0.678v0c0.387 0 0.817-0.14 1.29-0.42v0l0.839-0.516c0.043-0.021 0.151-0.032 0.322-0.032 0.172 0 0.355 0.108 0.549 0.322 0.194 0.215 0.258 0.409 0.193 0.581v0l-2.225 2.806c-1.376 1.763-2.064 3.154-2.065 4.174 0 1.024 0.473 1.535 1.42 1.535v0c0.989 0 2.204-0.527 3.644-1.58v0c0.86-0.624 1.645-1.322 2.355-2.097v0c0.667-0.774 1.032-1.161 1.096-1.161v0c0.151 0 0.226 0.08 0.226 0.239 0 0.163-0.097 0.353-0.29 0.567v0l-1.032 1.162c-0.581 0.602-1.226 1.183-1.935 1.741v0c-1.699 1.269-3.096 1.903-4.194 1.903zM244.384 209.889v0c-0.237 0-0.452-0.032-0.645-0.096v0c-1.376-0.387-2.064-1.161-2.065-2.323v0c0-1.505 0.946-3.247 2.839-5.225 1.892-1.978 3.591-2.967 5.096-2.967v0c0.495 0 0.899 0.133 1.213 0.4 0.31 0.271 0.464 0.6 0.464 0.987v0c0 1.204-0.907 2.355-2.722 3.451-1.819 1.097-3.299 1.645-4.438 1.645v0c-0.172 0-0.323-0.021-0.452-0.065v0c-0.323 0.581-0.484 1.193-0.484 1.839v0c0 1.118 0.533 1.677 1.6 1.677 1.062 0 2.443-0.72 4.142-2.161v0c1.312-1.054 2.43-2.172 3.354-3.354v0c0.194-0.258 0.361-0.387 0.503-0.388 0.138 0 0.206 0.065 0.207 0.194 0 0.129-0.086 0.312-0.258 0.548v0c-1.161 1.527-2.559 2.881-4.193 4.064-1.634 1.183-3.021 1.774-4.161 1.774zM250.48 200.6v0c0-0.258-0.273-0.387-0.819-0.387-0.55 0-1.331 0.419-2.342 1.258v0c-1.355 1.118-2.408 2.29-3.161 3.516v0c0.129 0.043 0.269 0.065 0.419 0.064v0c0.817 0 1.909-0.437 3.277-1.309 1.363-0.869 2.217-1.819 2.561-2.852v0c0.043-0.108 0.065-0.204 0.065-0.29z" fill="#08c076" fill-rule="nonzero" stroke="none" stroke-width="1" stroke-linecap="butt" stroke-linejoin="miter" stroke-miterlimit="10" stroke-dasharray="" stroke-dashoffset="0" font-family="none" font-weight="none" font-size="none" text-anchor="none" style="mix-blend-mode: normal" data-fill-palette-color="secondary" id="text-1"></path></g></g><g transform="matrix(1,0,0,1,29.33176499999999,55.01679188533625)"><svg viewBox="0 0 316.416 59.65505622932745" height="59.65505622932745" width="316.416"><g><svg viewBox="0 0 316.416 59.65505622932745" height="59.65505622932745" width="316.416"><g><svg viewBox="0 0 316.416 59.65505622932745" height="59.65505622932745" width="316.416"><g><svg viewBox="0 0 316.416 59.65505622932745" height="59.65505622932745" width="316.416"><g id="textblocktransform"><svg viewBox="0 0 316.416 59.65505622932745" height="59.65505622932745" width="316.416" id="textblock"><g><svg viewBox="0 0 316.416 59.65505622932745" height="59.65505622932745" width="316.416"><g transform="matrix(1,0,0,1,0,0)"><svg width="316.416" viewBox="2.2 -37.8 272.08 51.3" height="59.65505622932745" data-palette-color="#ffffff"><path d="M29.55-5.15L30.7-3.5 25.7-0.1 16.2 1 6.75-3.5 3.2-9.95 2.2-16.4 2.2-21.5 4.9-28.05 11.35-34.15 18.2-36.05 23.8-36.05 31.45-34.1 30.55-31.55 29.85-25.5 27.95-25.35 26.8-32.35 23.1-33.3 17.1-33.3 9.6-26.9 7.95-18.7 8.65-11.1 11.55-5.75 16.75-1.65 24.9-2.35 29.55-5.15ZM42.6-24.95L42.4-20.9 42.6-20.9 45.7-24.45 49.1-25.95 52.85-25 52-17.55 50.25-17.9 49-23.05 45.75-22 42.2-17.85 41.95-13.15 42.1-8.3 42.3-2.5 47.3-1.5 47.05 0.25 39.8 0 33.7 0.25 33.8-1.5 37.1-2.5 37.35-7.75 37.25-17.35 37-22.55 33.45-22.4 33.2-24.15 40.1-25.5 42.6-24.95ZM62.05 13L59.55 13.5 58 11.25 56.5 7.15 58.4 6.45 61.2 10.6 63.75 8.15 67.25 0.15 59.5-19.7 57.75-22.75 54.2-23.5 54.45-25.25 60.55-25 66.5-25.25 66.4-23.5 63.5-22.65 64.25-19.55 66.95-12.65 69.7-4.6 69.85-4.6 72.35-12.45 74.9-19.6 75.4-22.8 72.6-23.5 72.85-25.25 78.2-25 82.45-25.25 82.35-23.5 79.3-22.6 77.55-18.85 70.1 1.05 65.8 9.3 62.05 13ZM91.69-25.1L91.74-22.75 92.09-22.75 97.44-26 102.99-25.4 106.64-22.8 109.54-16.85 109.59-8.35 107.69-4.4 101.94 0.25 96.39 1 91.64-0.25 91.79 4.2 92.19 10 95.84 11 95.59 12.75 89.49 12.5 83.39 12.75 83.49 11 86.79 10 87.04 4.75 87.24-6.2 86.94-17.35 86.69-22.7 83.14-22.55 82.89-24.3 89.79-25.65 91.69-25.1ZM91.94-18.15L91.69-3 97.09-1.25 100.24-2.15 104.09-6.25 104.79-12 103.29-20.4 98.84-23.05 91.84-20.65 91.94-18.15ZM127.69-1.2L124.89 0.5 121.49 1 117.94-0.2 116.34-4.2 116.59-13.5 116.34-21.9 112.89-22.4 112.59-24.15 116.54-25.2 118.34-30.25 120.89-30.25 120.74-24.65 126.79-24.45 126.49-22.25 121.24-21.9 121.04-19.6 121.24-4.45 122.24-1.45 126.94-2.7 127.69-1.2ZM131.59-4.55L129.94-9.5 129.94-16.05 132.89-22 138.54-25.75 145.39-26 151.64-22.25 154.89-16.25 154.29-7.1 150.59-1.2 142.84 1 136.34-0.25 131.59-4.55ZM138.59-23.2L135.44-17.75 135.19-12.15 135.79-6.35 137.94-2.6 143.24-1.3 148.14-3.45 149.59-11.25 149.09-17.75 147.24-21.9 143.59-23.75 138.59-23.2ZM172.44-14L167.39-14.6 167.89-2.5 172.74-1.5 172.49 0.5 165.39 0 158.54 0.5 158.64-1.5 162.79-2.5 163.14-15.3 162.89-32.5 158.79-33.5 159.04-35.5 165.14-35 171.84-35.55 175.94-35.25 179.99-33.95 183.94-30.95 185.19-25.8 184.29-20.25 181.24-16.75 172.44-14ZM175.04-33.2L167.74-32.75 167.44-16.8 171.84-16.25 178.59-19.1 180.04-24.75 178.99-29.35 175.04-33.2ZM195.73-24.95L195.43-17.25 195.43-6.35 196.78-3.05 200.98-2.5 206.43-5.75 206.43-11.05 206.38-17.3 206.13-22.5 202.58-22.35 202.33-24.1 209.23-25.45 211.73-24.9 211.38-18.1 211.33-14.1 211.43-11.05 211.43-2.05 214.93-1.05 214.68 0.7 207.83 0.7 206.68-3.5 201.03 0.65 195.93 1 191.33-2.15 190.58-6.15 190.63-16.85 190.13-22.55 186.58-22.4 186.33-24.15 193.23-25.5 195.73-24.95ZM222.78 0L216.68 0.25 216.78-1.5 220.08-2.5 220.33-7.75 220.53-18.7 220.23-29.85 219.98-34.85 216.43-34.7 216.18-36.45 223.08-37.8 225.58-37.25 225.23-30.65 224.93-13.15 225.08-8.3 225.48-2.5 229.13-1.5 228.88 0.25 222.78 0ZM234.68-7.5L235.08-1.95 239.23-1.3 243.88-1.95 244.98-5.35 243.63-7.95 234.33-13.6 232.33-16.75 232.23-22.05 235.78-25.05 241.03-26 248.38-24.5 247.33-17.15 245.23-17.85 244.28-23.05 240.83-23.7 237.08-22.85 236.13-20.1 237.33-17.15 246.93-11.65 249.28-8.7 249.48-4 246.08 0 240.08 1 235.93 0.8 231.28-1 232.53-8.2 234.68-7.5ZM266.93-12.9L258.28-13.45 258.23-13 259.58-5.95 263.53-2.05 268.13-1.55 272.83-4.05 273.73-2.75 269.78 0.4 265.08 1 260.18-0.15 255.93-3.7 253.38-11.2 254.23-17.9 256.83-22.6 262.08-25.5 266.48-26.05 269.98-24.95 272.68-22.5 274.23-18.05 274.28-13.9 273.58-13.35 266.93-12.9ZM264.58-23.8L260.78-21.55 258.83-17.75 258.53-15.5 266.13-15.4 269.58-16.15 269.28-20.8 267.78-23.35 264.58-23.8Z" opacity="1" transform="matrix(1,0,0,1,0,0)" fill="#ffffff" class="wordmark-text-0" data-fill-palette-color="primary" id="text-0"></path></svg></g></svg></g></svg></g></svg></g><g></g></svg></g></svg></g></svg></g></svg></g><defs></defs></svg><rect width="375.07953" height="169.68863999999994" fill="none" stroke="none" visibility="hidden"></rect></g></svg></g></svg>