<?xml version="1.0" encoding="UTF-8"?>
<svg version="1.1" xmlns="http://www.w3.org/2000/svg" width="637" height="425">
<path d="M0 0 C210.21 0 420.42 0 637 0 C637 140.25 637 280.5 637 425 C426.79 425 216.58 425 0 425 C0 284.75 0 144.5 0 0 Z " fill="#464444" transform="translate(0,0)"/>
<path d="M0 0 C9.62069117 5.36307016 18.13582607 12.60171776 24.9375 21.25 C25.5975 21.58 26.2575 21.91 26.9375 22.25 C27.14246094 21.71117188 27.34742188 21.17234375 27.55859375 20.6171875 C29.49119687 17.2994609 32.18261524 14.92830487 35 12.375 C35.87736816 11.57654663 35.87736816 11.57654663 36.77246094 10.76196289 C47.23496227 1.38391907 56.17258972 -3.44149463 70.49609375 -3.1015625 C78.23512315 -2.31096926 84.52705171 0.71372733 89.9375 6.25 C96.56965576 15.11690389 96.87697228 24.44222893 95.9375 35.25 C93.35501876 48.79695875 86.34530311 58.52677492 76.9375 68.25 C76.4105957 68.79736816 75.88369141 69.34473633 75.34082031 69.90869141 C67.93263629 77.57313336 60.33906679 84.66835717 51.9375 91.25 C43.4637214 98.08937027 35.18152246 105.13727405 26.9375 112.25 C23.54979787 110.7707545 21.24258899 108.84166247 18.5625 106.3125 C14.55041701 102.63033866 10.4268195 99.20509623 6.125 95.875 C0.22050389 91.29758356 -5.52251855 86.56412868 -11.1953125 81.703125 C-12.92827028 80.22043088 -14.67049921 78.74835049 -16.4296875 77.296875 C-18.0095792 75.98981601 -19.54367174 74.62754191 -21.0625 73.25 C-21.0625 72.59 -21.0625 71.93 -21.0625 71.25 C-10.1725 71.25 0.7175 71.25 11.9375 71.25 C11.9375 67.29 11.9375 63.33 11.9375 59.25 C2.3675 59.25 -7.2025 59.25 -17.0625 59.25 C-19.5 50.375 -19.5 50.375 -20.26342773 47.58251953 C-20.56422241 46.49366455 -20.56422241 46.49366455 -20.87109375 45.3828125 C-21.07532959 44.63918457 -21.27956543 43.89555664 -21.48999023 43.12939453 C-22.02466267 41.1863705 -22.02466267 41.1863705 -23.0625 39.25 C-26.47386476 39.1884058 -26.47386476 39.1884058 -30.0625 40.25 C-31.44834316 42.72471993 -32.23664861 44.60623675 -33.0625 47.25 C-33.61080885 48.56849152 -34.17276771 49.88141219 -34.75 51.1875 C-35.183125 52.198125 -35.61625 53.20875 -36.0625 54.25 C-43.88835774 46.14464735 -45.46024977 34.14406303 -45.33984375 23.34765625 C-44.62796198 15.39663873 -40.99227818 8.55708071 -35.0625 3.25 C-24.648272 -4.2491845 -11.54479746 -5.34939319 0 0 Z " fill="#A4E7DF" transform="translate(316.0625,50.75)"/>
<path d="M0 0 C6.02395183 2.35372952 10.0497118 6.81426735 12.89453125 12.50390625 C15.16846792 21.67972114 15.19266539 31.15372001 10.39453125 39.44140625 C7.53340275 43.37545794 4.58323386 45.94100538 -0.10546875 47.50390625 C-2.20419938 47.7000493 -4.31103966 47.81572268 -6.41796875 47.87890625 C-7.52785156 47.92789063 -8.63773437 47.976875 -9.78125 48.02734375 C-13.10546875 47.50390625 -13.10546875 47.50390625 -19.10546875 42.50390625 C-19.43546875 49.10390625 -19.76546875 55.70390625 -20.10546875 62.50390625 C-24.39546875 62.50390625 -28.68546875 62.50390625 -33.10546875 62.50390625 C-33.10546875 42.04390625 -33.10546875 21.58390625 -33.10546875 0.50390625 C-29.14546875 0.50390625 -25.18546875 0.50390625 -21.10546875 0.50390625 C-20.77546875 2.15390625 -20.44546875 3.80390625 -20.10546875 5.50390625 C-19.32171875 4.69953125 -18.53796875 3.89515625 -17.73046875 3.06640625 C-12.8317514 -1.71567497 -6.52636125 -1.53775117 0 0 Z " fill="#F9F9F9" transform="translate(372.10546875,227.49609375)"/>
<path d="M0 0 C5.7243165 2.23665347 9.3494158 6.06334185 12.20703125 11.37890625 C15.15676996 18.62027299 15.24525272 27.07239028 12.9765625 34.515625 C10.54192043 39.78674326 7.69733009 43.26723747 2.89453125 46.50390625 C-0.36724017 47.59116339 -2.98500315 47.77595688 -6.41796875 47.87890625 C-7.52785156 47.92789063 -8.63773438 47.976875 -9.78125 48.02734375 C-13.10546875 47.50390625 -13.10546875 47.50390625 -19.10546875 42.50390625 C-19.43546875 49.10390625 -19.76546875 55.70390625 -20.10546875 62.50390625 C-24.39546875 62.50390625 -28.68546875 62.50390625 -33.10546875 62.50390625 C-33.10546875 42.04390625 -33.10546875 21.58390625 -33.10546875 0.50390625 C-29.14546875 0.50390625 -25.18546875 0.50390625 -21.10546875 0.50390625 C-20.77546875 2.15390625 -20.44546875 3.80390625 -20.10546875 5.50390625 C-19.32171875 4.69953125 -18.53796875 3.89515625 -17.73046875 3.06640625 C-12.8317514 -1.71567497 -6.52636125 -1.53775117 0 0 Z " fill="#F9F9F9" transform="translate(232.10546875,227.49609375)"/>
<path d="M0 0 C3.465 0.28875 6.93 0.5775 10.5 0.875 C15.45 15.23 15.45 15.23 20.5 29.875 C23.42022877 20.70626751 23.42022877 20.70626751 26.33374023 11.53540039 C26.69669189 10.40094482 27.05964355 9.26648926 27.43359375 8.09765625 C27.80540771 6.92984619 28.17722168 5.76203613 28.56030273 4.55883789 C29.5 1.875 29.5 1.875 30.5 0.875 C32.68639453 0.80241054 34.87500389 0.79126217 37.0625 0.8125 C38.85880859 0.82603516 38.85880859 0.82603516 40.69140625 0.83984375 C41.61824219 0.85144531 42.54507813 0.86304688 43.5 0.875 C41.21646446 7.5595313 38.86848582 14.2201237 36.5 20.875 C36.25582336 21.56323853 36.01164673 22.25147705 35.7600708 22.96057129 C34.10345444 27.62602852 32.42869165 32.28448043 30.73568726 36.93685913 C30.16386839 38.51517491 29.5969544 40.09527671 29.0350647 41.67715454 C28.23202827 43.93438849 27.41108684 46.18436448 26.5859375 48.43359375 C26.3495607 49.10999908 26.1131839 49.78640442 25.86964417 50.48330688 C23.93019884 55.68007796 21.16055015 59.00814338 16.640625 62.1796875 C13.48110348 63.20595544 10.55844753 63.06126755 7.25 63 C5.35507813 62.97292969 5.35507813 62.97292969 3.421875 62.9453125 C1.97554687 62.91050781 1.97554687 62.91050781 0.5 62.875 C0.5 59.575 0.5 56.275 0.5 52.875 C2.77864583 52.64713542 5.05729167 52.41927083 7.3359375 52.19140625 C9.54272805 51.98409886 9.54272805 51.98409886 11.5 50.875 C11.8589736 44.43911615 10.75365201 39.75565473 8.4375 33.78125 C8.12675537 32.94911987 7.81601074 32.11698975 7.49584961 31.25964355 C6.50942075 28.62664873 5.50507867 26.00092461 4.5 23.375 C3.8243215 21.58118046 3.14983004 19.78691332 2.4765625 17.9921875 C0.83139131 13.61449559 -0.82987001 9.24322752 -2.5 4.875 C-2.83 7.185 -3.16 9.495 -3.5 11.875 C-4.16386719 11.88917969 -4.82773438 11.90335938 -5.51171875 11.91796875 C-11.50119647 12.23590797 -11.50119647 12.23590797 -16.5625 15.3125 C-19.45348946 19.1360667 -19.6605528 21.21189997 -19.81640625 25.9765625 C-19.85830078 27.18828125 -19.90019531 28.4 -19.94335938 29.6484375 C-19.98267578 30.91945313 -20.02199219 32.19046875 -20.0625 33.5 C-20.10568359 34.77875 -20.14886719 36.0575 -20.19335938 37.375 C-20.2996981 40.54153082 -20.4003767 43.70825079 -20.5 46.875 C-24.46 46.875 -28.42 46.875 -32.5 46.875 C-32.5 31.695 -32.5 16.515 -32.5 0.875 C-28.54 0.875 -24.58 0.875 -20.5 0.875 C-20.17 2.525 -19.84 4.175 -19.5 5.875 C-19.05591797 5.4404248 -18.61183594 5.00584961 -18.15429688 4.55810547 C-12.17965043 -0.66142042 -7.66858397 -0.76157447 0 0 Z " fill="#FBFBFB" transform="translate(151.5,227.125)"/>
<path d="M0 0 C5.45303636 4.7618064 8.53710654 10.43283846 9.21484375 17.578125 C9.48337383 26.15043133 8.33070243 32.82342355 2.44921875 39.3515625 C-3.83373482 44.95087864 -10.31669321 45.22574568 -18.38671875 45.00390625 C-25.88442158 44.37378016 -30.05902161 41.29816011 -34.83203125 35.671875 C-39.17710938 28.66993381 -38.7323378 20.63525823 -38.05859375 12.6953125 C-36.45696336 6.45183115 -32.39230913 2.15256085 -27.05859375 -1.3046875 C-18.66440964 -4.99812851 -7.80044259 -5.02790959 0 0 Z " fill="#FBFBFB" transform="translate(322.05859375,230.3046875)"/>
<path d="M0 0 C6.67237869 3.10958026 9.57967503 8.19842401 12.7109375 14.60546875 C13.4453125 17.27734375 13.4453125 17.27734375 13.4453125 26.27734375 C2.5553125 26.27734375 -8.3346875 26.27734375 -19.5546875 26.27734375 C-18.70786978 34.8215872 -18.70786978 34.8215872 -15.3671875 36.83984375 C-10.15164823 37.65114986 -6.88343642 38.04014406 -2.1796875 35.33984375 C-0.30453809 33.87921055 -0.30453809 33.87921055 1.4453125 32.27734375 C3.29818752 32.20507873 5.15365128 32.19353155 7.0078125 32.21484375 C8.01972656 32.22386719 9.03164063 32.23289062 10.07421875 32.2421875 C11.24791016 32.25958984 11.24791016 32.25958984 12.4453125 32.27734375 C10.14723127 39.0364062 6.63814077 42.59577666 0.66796875 46.4140625 C-5.38236412 48.76401604 -13.59684003 48.37005173 -19.62109375 46.14453125 C-26.35851712 42.30891914 -30.01161179 37.58601512 -32.5546875 30.27734375 C-33.50878026 22.43381373 -32.77684537 15.06798099 -28.5546875 8.27734375 C-20.67440107 -0.4264972 -11.63602003 -3.29153472 0 0 Z " fill="#FAFAFA" transform="translate(547.5546875,227.72265625)"/>
<path d="M0 0 C3.96 0 7.92 0 12 0 C12.01458252 0.87736816 12.02916504 1.75473633 12.04418945 2.65869141 C12.1054968 5.93549321 12.17969333 9.21148944 12.26245117 12.48779297 C12.29556291 13.9017449 12.32363716 15.31582464 12.34643555 16.72998047 C12.38023775 18.77105823 12.43255964 20.81097928 12.48828125 22.8515625 C12.51446533 24.07697754 12.54064941 25.30239258 12.56762695 26.56494141 C13.03497443 30.27786009 14.14567293 32.77489565 16 36 C17.43655854 36.08131463 18.8744483 36.13933559 20.3125 36.1875 C21.11300781 36.22230469 21.91351563 36.25710938 22.73828125 36.29296875 C25.05829913 36.18434168 25.05829913 36.18434168 26.73046875 34.67578125 C29.42289773 31.121775 29.18953835 27.43991598 29.31640625 23.14453125 C29.33718735 22.48289474 29.35796844 21.82125824 29.37937927 21.13957214 C29.44464727 19.03065148 29.50365344 16.92160865 29.5625 14.8125 C29.60570689 13.38084685 29.64932188 11.94920596 29.69335938 10.51757812 C29.80107185 7.01184204 29.90031308 3.50601025 30 0 C34.29 0 38.58 0 43 0 C43 15.18 43 30.36 43 46 C39.04 46 35.08 46 31 46 C30.505 43.525 30.505 43.525 30 41 C29.236875 41.804375 28.47375 42.60875 27.6875 43.4375 C23.04038366 47.86847139 18.31616843 47.33881592 12.17578125 47.27734375 C8.04601558 46.91668771 5.9318255 45.9318255 3 43 C-0.14121107 37.97839045 -0.40688408 34.04675266 -0.29296875 28.3203125 C-0.28872391 27.50754852 -0.28447906 26.69478455 -0.28010559 25.85739136 C-0.26340804 23.27958041 -0.22577362 20.7025718 -0.1875 18.125 C-0.17244158 16.36980301 -0.1587552 14.61459369 -0.14648438 12.859375 C-0.11353392 8.57261087 -0.06181453 4.28644114 0 0 Z " fill="#FCFCFC" transform="translate(394,228)"/>
<path d="M0 0 C2.35843491 1.86734692 3.99732292 3.60268577 5.51953125 6.203125 C5.61328125 8.86328125 5.61328125 8.86328125 5.51953125 11.203125 C1.80912617 11.49553871 -1.77904353 11.65003003 -5.48046875 11.203125 C-8.16796875 8.703125 -8.16796875 8.703125 -10.48046875 6.203125 C-13.94856789 5.56640367 -17.27487234 5.60032679 -20.48046875 7.203125 C-20.15046875 8.853125 -19.82046875 10.503125 -19.48046875 12.203125 C-14.77797182 13.80470004 -10.08216712 15.31796324 -5.29296875 16.640625 C0.28330269 18.29702911 4.20846653 20.23652792 7.51953125 25.203125 C8.28340838 29.8663284 7.94988051 33.37316572 5.76953125 37.578125 C1.17035055 42.94383582 -3.24398731 44.95190618 -10.35546875 45.50390625 C-11.73039856 45.51833777 -13.10547838 45.52208642 -14.48046875 45.515625 C-15.50914062 45.53979492 -15.50914062 45.53979492 -16.55859375 45.56445312 C-22.76416788 45.57037447 -26.63951393 43.83488041 -31.23046875 39.765625 C-34.56997782 35.96229523 -35.48046875 34.31901316 -35.48046875 29.203125 C-31.19046875 29.203125 -26.90046875 29.203125 -22.48046875 29.203125 C-21.82046875 30.853125 -21.16046875 32.503125 -20.48046875 34.203125 C-17.48307934 36.20138461 -16.84699367 36.47862898 -13.48046875 36.453125 C-12.79984375 36.45828125 -12.11921875 36.4634375 -11.41796875 36.46875 C-9.15630868 36.30230103 -9.15630868 36.30230103 -6.48046875 34.203125 C-6.23015898 31.61932323 -6.23015898 31.61932323 -6.48046875 29.203125 C-10.12368267 27.55534459 -13.67454902 26.08287565 -17.5234375 24.9921875 C-18.5453418 24.70214844 -18.5453418 24.70214844 -19.58789062 24.40625 C-20.98350997 24.01835955 -22.38205771 23.64086622 -23.78320312 23.2734375 C-28.51541517 21.90465305 -30.82750993 20.35043034 -33.48046875 16.203125 C-35.24006465 12.6839332 -34.41001799 8.92777715 -33.48046875 5.203125 C-26.21222894 -4.63037592 -10.23491243 -6.3327127 0 0 Z " fill="#F9F9F9" transform="translate(502.48046875,229.796875)"/>
<path d="M0 0 C1.32 0.33 2.64 0.66 4 1 C4.99 9.25 5.98 17.5 7 26 C7.7425 24.040625 8.485 22.08125 9.25 20.0625 C10.515625 16.72265625 10.515625 16.72265625 12 14 C14.171875 13.12109375 14.171875 13.12109375 16 13 C18.47045803 16.81615468 18.43831912 20.84744248 18.625 25.25 C18.68300781 26.36761719 18.68300781 26.36761719 18.7421875 27.5078125 C18.83605108 29.3381524 18.91909718 31.16904143 19 33 C19.66 33 20.32 33 21 33 C21.09667969 31.89527344 21.19335938 30.79054688 21.29296875 29.65234375 C21.95536298 24.38915179 23.57264006 19.5559345 25.3125 14.5625 C25.75625977 13.19834961 25.75625977 13.19834961 26.20898438 11.80664062 C26.65661133 10.51209961 26.65661133 10.51209961 27.11328125 9.19140625 C27.37923096 8.40967041 27.64518066 7.62793457 27.91918945 6.82250977 C29 5 29 5 31.11791992 4.23803711 C31.73900635 4.15948486 32.36009277 4.08093262 33 4 C35.70846007 10.52492652 36.68199806 15.75098931 38 23 C47.57 23 57.14 23 67 23 C67 24.98 67 26.96 67 29 C56.44 29 45.88 29 35 29 C32 21 32 21 31 17 C27.7 27.23 24.4 37.46 21 48 C19.68 47.67 18.36 47.34 17 47 C15.0536064 42.70762206 14.48866178 38.2712963 13.875 33.625 C13.62363281 31.75714844 13.62363281 31.75714844 13.3671875 29.8515625 C13.24601562 28.91054687 13.12484375 27.96953125 13 27 C12.52820313 28.37285156 12.52820313 28.37285156 12.046875 29.7734375 C11.61890625 30.96195313 11.1909375 32.15046875 10.75 33.375 C10.33234375 34.55835938 9.9146875 35.74171875 9.484375 36.9609375 C8 40 8 40 5.828125 41.4140625 C5.22484375 41.60742188 4.6215625 41.80078125 4 42 C1.64073796 39.64073796 1.66842602 38.87599311 1.3671875 35.6484375 C1.28339844 34.79765625 1.19960938 33.946875 1.11328125 33.0703125 C1.03464844 32.18085937 0.95601563 31.29140625 0.875 30.375 C0.78863281 29.4778125 0.70226562 28.580625 0.61328125 27.65625 C0.4009076 25.4381252 0.19682915 23.21954931 0 21 C-0.309375 22.134375 -0.61875 23.26875 -0.9375 24.4375 C-2 28 -2 28 -3 29 C-6.02977804 29.08871273 -9.03667022 29.1151935 -12.06640625 29.09765625 C-12.97502914 29.0962413 -13.88365204 29.09482635 -14.81980896 29.09336853 C-17.73407221 29.08775193 -20.64825981 29.07519665 -23.5625 29.0625 C-25.53320202 29.05748714 -27.50390524 29.05292386 -29.47460938 29.04882812 C-34.31643559 29.03777711 -39.15820495 29.02050138 -44 29 C-44.042721 27.33388095 -44.04063832 25.66617115 -44 24 C-43 23 -43 23 -39.48999023 22.88647461 C-37.92951578 22.88663374 -36.36903607 22.89232858 -34.80859375 22.90234375 C-33.57883568 22.90446617 -33.57883568 22.90446617 -32.32423401 22.90663147 C-29.69528618 22.91224711 -27.06642227 22.92480221 -24.4375 22.9375 C-22.65950643 22.94251299 -20.88151154 22.94707624 -19.10351562 22.95117188 C-14.73564455 22.96222161 -10.36783652 22.97949669 -6 23 C-5.80083984 21.78981201 -5.80083984 21.78981201 -5.59765625 20.55517578 C-5.42105469 19.4876709 -5.24445313 18.42016602 -5.0625 17.3203125 C-4.88847656 16.26602051 -4.71445313 15.21172852 -4.53515625 14.12548828 C-2.55381715 2.55381715 -2.55381715 2.55381715 0 0 Z " fill="#9DDCD5" transform="translate(258,90)"/>
<path d="M0 0 C3.50340583 2.79467086 4.88162133 5.43542479 5.8125 9.875 C5.874375 10.90625 5.93625 11.9375 6 13 C1.71 13 -2.58 13 -7 13 C-7.66 11.35 -8.32 9.7 -9 8 C-12.75047482 5.49968346 -14.55856266 5.46396446 -19 6 C-21.63016161 8.1727422 -23.47336894 9.94673788 -25 13 C-25.80314601 23.01949384 -25.80314601 23.01949384 -22 32 C-18.2363507 34.50909953 -16.42637526 34.19393307 -12.09375 33.6171875 C-9.72671009 33.13266302 -9.72671009 33.13266302 -8 30.5625 C-7.67 29.716875 -7.34 28.87125 -7 28 C-6.67 27.34 -6.34 26.68 -6 26 C-2.04 26 1.92 26 6 26 C5.40957946 32.19941562 3.11786993 36.04504314 -1.4375 40.25 C-8.18293981 44.85664182 -15.05096704 44.83023233 -23 44 C-29.69510576 42.00694829 -33.28537571 37.9870506 -36.90625 32.18359375 C-40.26164616 25.484785 -39.90532829 17.18386152 -37.8125 10.125 C-35.40239776 3.80692825 -30.68774772 0.38844545 -25 -3 C-16.52712877 -5.68218775 -7.60701387 -4.42714501 0 0 Z " fill="#FBFBFB" transform="translate(105,231)"/>
<path d="M0 0 C4.29 0 8.58 0 13 0 C13 4.62 13 9.24 13 14 C15.97 14 18.94 14 22 14 C22 16.64 22 19.28 22 22 C19.03 22 16.06 22 13 22 C13.13810905 26.47944035 13.28677416 30.95846783 13.4375 35.4375 C13.47681641 36.71689453 13.51613281 37.99628906 13.55664062 39.31445312 C13.59853516 40.52939453 13.64042969 41.74433594 13.68359375 42.99609375 C13.72025146 44.12200928 13.75690918 45.2479248 13.79467773 46.40795898 C13.71218045 48.92853441 13.71218045 48.92853441 15 50 C17.32817964 50.36760731 19.6618385 50.70241581 22 51 C22 54.3 22 57.6 22 61 C7.68257826 61.57354657 7.68257826 61.57354657 3 58 C-0.04656075 53.93959202 -0.35703446 50.96769915 -0.29296875 45.94921875 C-0.28872391 45.29041214 -0.28447906 44.63160553 -0.28010559 43.95283508 C-0.26341196 41.86396115 -0.22578058 39.77607861 -0.1875 37.6875 C-0.17244097 36.26498797 -0.15875469 34.8424607 -0.14648438 33.41992188 C-0.11354003 29.94629649 -0.06182408 26.47324513 0 23 C-2.64 23 -5.28 23 -8 23 C-8 20.03 -8 17.06 -8 14 C-5.36 14 -2.72 14 0 14 C0 9.38 0 4.76 0 0 Z " fill="#F8F8F8" transform="translate(257,214)"/>
<path d="M0 0 C4.29 0 8.58 0 13 0 C13 21.12 13 42.24 13 64 C8.71 64 4.42 64 0 64 C0 42.88 0 21.76 0 0 Z " fill="#F7F7F7" transform="translate(447,210)"/>
<path d="M0 0 C2.7261332 0.88734896 4.67863459 2.05821199 6.3515625 4.42578125 C8.26774542 9.82256695 7.89730291 16.10695324 7.16015625 21.703125 C5.37186445 25.28953438 3.74628211 27.81044746 0.16015625 29.703125 C-3.98674855 30.07338436 -7.42379131 30.26516433 -10.83984375 27.703125 C-14.85326922 22.05460027 -15.48852611 16.4848042 -14.83984375 9.703125 C-12.1511174 2.20299361 -7.97697079 -1.43825183 0 0 Z " fill="#4B4848" transform="translate(310.83984375,236.296875)"/>
<path d="M0 0 C3.96451433 2.13473849 6.43039829 3.76135205 8 8 C8.30078125 11.2421875 8.30078125 11.2421875 8.3125 14.875 C8.32925781 16.06867188 8.34601563 17.26234375 8.36328125 18.4921875 C7.96698063 22.31883219 6.97389537 24.72149074 5 28 C1.65274664 30.62998478 -1.8824152 30.43342998 -6 30 C-10.05062123 27.56962726 -11.57631595 25.42784553 -13 21 C-14.28078873 9.10057911 -14.28078873 9.10057911 -11.1875 4.3125 C-7.52575609 0.44151358 -5.27043971 -0.62005173 0 0 Z " fill="#4B4949" transform="translate(365,236)"/>
<path d="M0 0 C3.96410017 2.13451548 6.43279031 3.76058947 8 8 C8.30078125 11.27734375 8.30078125 11.27734375 8.3125 14.9375 C8.33763672 16.74541016 8.33763672 16.74541016 8.36328125 18.58984375 C7.8864639 23.06577436 6.33558873 25.61671168 3.25 28.8125 C-0.03392206 30.54568109 -2.34119985 30.44932633 -6 30 C-9.52317701 27.80780097 -11.5099879 25.84646296 -13 22 C-14.33659266 9.10032663 -14.33659266 9.10032663 -11.1875 4.25 C-7.49189912 0.44881053 -5.25065454 -0.61772406 0 0 Z " fill="#454343" transform="translate(225,236)"/>
<path d="M0 0 C4.29 0 8.58 0 13 0 C17 4 17 4 17.4609375 6.18359375 C17.41839844 7.29927734 17.41839844 7.29927734 17.375 8.4375 C17.33052734 9.62085938 17.33052734 9.62085938 17.28515625 10.828125 C17 13 17 13 15.8125 15.6875 C14.64640319 18.17075616 14.64640319 18.17075616 16.375 21.1875 C16.91125 22.115625 17.4475 23.04375 18 24 C18 24.66 18 25.32 18 26 C16.1875 25.875 16.1875 25.875 14 25 C11 19.96428571 11 19.96428571 11 17 C8.69 17 6.38 17 4 17 C4 19.97 4 22.94 4 26 C2.68 26 1.36 26 0 26 C0 17.42 0 8.84 0 0 Z " fill="#9BD8D1" transform="translate(374,314)"/>
<path d="M0 0 C1.32 0 2.64 0 4 0 C4.50690584 2.06081361 5.00524619 4.12373526 5.5 6.1875 C5.7784375 7.33605469 6.056875 8.48460937 6.34375 9.66796875 C6.91495385 12.56818829 7.13283779 15.06096385 7 18 C7.66 18 8.32 18 9 18 C9.10957031 17.3709375 9.21914062 16.741875 9.33203125 16.09375 C10.38049266 10.43376318 11.82831017 5.3305114 14 0 C15.90722656 0.27514648 15.90722656 0.27514648 18 1 C19.12684953 3.73112741 19.98163314 6.2330736 20.75 9.0625 C20.97042969 9.82111328 21.19085938 10.57972656 21.41796875 11.36132812 C21.96048899 13.23656113 22.48223106 15.11778259 23 17 C24.32 11.72 25.64 6.44 27 1 C28.32 0.67 29.64 0.34 31 0 C29.45592542 8.82641212 27.8842074 17.4905654 25 26 C23.68 25.67 22.36 25.34 21 25 C20.73445313 24.02417969 20.46890625 23.04835938 20.1953125 22.04296875 C19.83882407 20.75773414 19.48203761 19.47258216 19.125 18.1875 C18.77695313 16.92292969 18.42890625 15.65835937 18.0703125 14.35546875 C17.14299705 10.91591287 17.14299705 10.91591287 15 8 C13.02 13.94 11.04 19.88 9 26 C8.01 26 7.02 26 6 26 C4.99619455 22.04262161 3.99760064 18.08394668 3 14.125 C2.71382812 12.99707031 2.42765625 11.86914062 2.1328125 10.70703125 C1.72675781 9.09248047 1.72675781 9.09248047 1.3125 7.4453125 C1.06113281 6.45031738 0.80976563 5.45532227 0.55078125 4.43017578 C0 2 0 2 0 0 Z " fill="#9CD9D2" transform="translate(203,314)"/>
<path d="M0 0 C1.65 0.33 3.3 0.66 5 1 C6.17372973 4.60190542 7.33776256 8.20687151 8.5 11.8125 C9.00080078 13.34874023 9.00080078 13.34874023 9.51171875 14.91601562 C9.82753906 15.89892578 10.14335937 16.88183594 10.46875 17.89453125 C10.76201172 18.80050049 11.05527344 19.70646973 11.35742188 20.63989258 C12 23 12 23 12 26 C11.01 26 10.02 26 9 26 C8.67 24.35 8.34 22.7 8 21 C4.37 21 0.74 21 -3 21 C-3.33 22.65 -3.66 24.3 -4 26 C-4.99 26 -5.98 26 -7 26 C-5.55993623 17.05870856 -2.79194029 8.58894609 0 0 Z " fill="#9AD6CF" transform="translate(346,314)"/>
<path d="M0 0 C4.62 0 9.24 0 14 0 C14 0.99 14 1.98 14 3 C10.37 3 6.74 3 3 3 C3 5.97 3 8.94 3 12 C5.97 12 8.94 12 12 12 C12 12.99 12 13.98 12 15 C9.03 15 6.06 15 3 15 C3 17.64 3 20.28 3 23 C6.96 23 10.92 23 15 23 C15 23.99 15 24.98 15 26 C10.05 26 5.1 26 0 26 C0 17.42 0 8.84 0 0 Z " fill="#A1E2DA" transform="translate(409,314)"/>
<path d="M0 0 C2.609375 0.42578125 2.609375 0.42578125 5.296875 2.73828125 C6.609375 5.42578125 6.609375 5.42578125 6.609375 8.42578125 C5.289375 8.42578125 3.969375 8.42578125 2.609375 8.42578125 C2.279375 7.10578125 1.949375 5.78578125 1.609375 4.42578125 C-1.360625 4.42578125 -4.330625 4.42578125 -7.390625 4.42578125 C-7.390625 10.69578125 -7.390625 16.96578125 -7.390625 23.42578125 C-4.420625 23.09578125 -1.450625 22.76578125 1.609375 22.42578125 C1.939375 21.10578125 2.269375 19.78578125 2.609375 18.42578125 C3.599375 18.42578125 4.589375 18.42578125 5.609375 18.42578125 C5.859375 20.73828125 5.859375 20.73828125 5.609375 23.42578125 C2.70246413 26.23245381 0.54038097 26.85725786 -3.453125 26.86328125 C-4.31035156 26.88261719 -5.16757812 26.90195312 -6.05078125 26.921875 C-8.390625 26.42578125 -8.390625 26.42578125 -10.17578125 24.99609375 C-12.05468591 21.02079065 -11.82422481 17.20292283 -11.765625 12.86328125 C-11.77722656 12.00025391 -11.78882813 11.13722656 -11.80078125 10.24804688 C-11.79691406 9.41853516 -11.79304688 8.58902344 -11.7890625 7.734375 C-11.78567871 6.97954834 -11.78229492 6.22472168 -11.77880859 5.44702148 C-10.59142769 -0.73557378 -5.13885957 -0.12915123 0 0 Z " fill="#9FE0D8" transform="translate(317.390625,313.57421875)"/>
<path d="M0 0 C4.62 0 9.24 0 14 0 C14 0.99 14 1.98 14 3 C10.37 3 6.74 3 3 3 C3 5.97 3 8.94 3 12 C5.97 12 8.94 12 12 12 C12 12.99 12 13.98 12 15 C9.03 15 6.06 15 3 15 C3 17.64 3 20.28 3 23 C6.96 23 10.92 23 15 23 C15 23.99 15 24.98 15 26 C10.05 26 5.1 26 0 26 C0 17.42 0 8.84 0 0 Z " fill="#A0E1D9" transform="translate(251,314)"/>
<path d="M0 0 C4.26849791 3.24777015 4.92014773 4.60073865 6 10 C-0.6 10 -7.2 10 -14 10 C-12.99282785 4.96413924 -12.65953092 4.10505654 -9 1 C-5.86128812 -0.56935594 -3.46144178 -0.35201103 0 0 Z " fill="#565353" transform="translate(542,236)"/>
<path d="M0 0 C6.0546875 -0.1953125 6.0546875 -0.1953125 8 0 C10 2 10 2 10.25 5.5 C10 9 10 9 8 11 C5.31160615 11.26991906 2.70858064 11.08737357 0 11 C0 7.37 0 3.74 0 0 Z " fill="#484646" transform="translate(378,317)"/>
<path d="M0 0 C3.5718623 3.5718623 4 8.10186234 4 13 C1.69 13 -0.62 13 -3 13 C-2.52060632 8.28596212 -2.03165952 4.33420699 0 0 Z " fill="#4D5150" transform="translate(348,319)"/>
<path d="M0 0 C5.22015915 -0.43501326 5.22015915 -0.43501326 8 0 C10.5 2.3125 10.5 2.3125 12 5 C12 5.99 12 6.98 12 8 C10.68 8 9.36 8 8 8 C7.67 6.68 7.34 5.36 7 4 C4.36 3.67 1.72 3.34 -1 3 C-0.67 2.01 -0.34 1.02 0 0 Z " fill="#9AD7CF" transform="translate(312,314)"/>
</svg>
